<?xml version="1.0" encoding="UTF-8" standalone="no"?>
<!DOCTYPE svg PUBLIC "-//W3C//DTD SVG 1.1//EN" "http://www.w3.org/Graphics/SVG/1.1/DTD/svg11.dtd">
<svg width="100%" height="100%" viewBox="0 0 156 165" version="1.1" xmlns="http://www.w3.org/2000/svg" xmlns:xlink="http://www.w3.org/1999/xlink" xml:space="preserve" style="fill-rule:evenodd;clip-rule:evenodd;stroke-linecap:round;stroke-linejoin:round;stroke-miterlimit:1.5;">
    <g transform="matrix(1,0,0,1,-1077,-539)">
        <g id="settings" transform="matrix(1,0,0,1,55.1689,21.3832)">
            <g transform="matrix(1.16721,-0.673886,0.673886,1.16721,-661.087,710.235)">
                <path d="M1172.5,560L1191.99,571.25L1191.99,593.75L1172.5,605L1153.01,593.75L1153.01,571.25L1172.5,560Z" style="fill:none;stroke:black;stroke-width:4.45px;"/>
            </g>
            <g transform="matrix(1.38212,0.370338,-0.370338,1.38212,-204.27,-615.904)">
                <path d="M1100.39,543.684L1120.99,549.205L1132.91,539.509L1145.84,552.44L1136.07,564.287L1141.6,584.89L1155.98,590.267L1151.23,607.993L1136.07,605.493L1120.99,620.575L1123.54,635.684L1105.82,640.431L1100.39,626.096L1079.79,620.575L1067.95,630.308L1054.97,617.331L1064.7,605.493L1059.18,584.89L1044.84,579.504L1049.59,561.778L1064.7,564.287L1079.79,549.205L1077.28,534.086L1095,529.337L1100.39,543.684Z" style="fill:none;stroke:black;stroke-width:4.19px;"/>
            </g>
        </g>
    </g>
</svg>
